<svg xmlns="http://www.w3.org/2000/svg" fill="none" viewBox="0 0 512 512" id="academic">
  <g clip-path="url(#clip0_427_76245)" fill="#000000" class="color000000 svgShape">
    <path fill="#000000" fill-rule="evenodd" d="M245 270C244 270 244 270 243 270L5 207C2 206 0 203 0 200C0 197 2 194 5 193L243 129C244 129 246 129 247 129L486 193C489 194 491 197 491 200C491 203 489 206 486 207L247 270C246 270 246 270 245 270ZM34 200L245 256L457 200L245 143L34 200Z" clip-rule="evenodd" class="color000000 svgShape"></path>
    <path fill="#000000" fill-rule="evenodd" d="M245.999 371C198.999 371 155.999 362 132.999 347 111.999 334 108.999 319 109.999 308L117.999 230C117.999 227 121.999 224 125.999 224 129.999 225 131.999 228 131.999 232L123.999 310C122.999 319 127.999 328 139.999 335 161.999 349 200.999 357 244.999 357 289.999 357 328.999 349 350.999 335 362.999 328 367.999 319 366.999 310L358.999 232C358.999 228 360.999 225 364.999 224 368.999 224 371.999 227 372.999 230L380.999 308C381.999 319 378.999 334 357.999 347 334.999 362 292.999 371 245.999 371zM484 278C480 278 477 275 477 271V200C477 196 480 193 484 193 488 193 491 196 491 200V271C491 275 488 278 484 278z" clip-rule="evenodd" class="color000000 svgShape"></path>
    <path fill="#000000" fill-rule="evenodd" d="M484 312C470 312 460 302 460 288C460 275 471 264 484 264C497 264 508 275 508 288C508 302 498 312 484 312ZM484 278C478 278 474 283 474 288C474 294 478 298 484 298C489 298 494 294 494 288C494 283 489 278 484 278Z" clip-rule="evenodd" class="color000000 svgShape"></path>
    <path fill="#000000" fill-rule="evenodd" d="M505.001 382.997H463.001C459.001 382.997 456.001 379.997 456.001 376.997C454.001 343.997 464.001 311.997 467.001 299.997C468.001 295.997 472.001 293.997 476.001 294.997C480.001 296.997 482.001 300.997 481.001 303.997C477.001 314.997 469.001 340.997 470.001 368.997H498.001C499.001 340.997 490.001 314.997 487.001 303.997C486.001 299.997 488.001 296.997 492.001 294.997C495.001 293.997 499.001 295.997 500.001 299.997C504.001 311.997 514.001 343.997 512.001 376.997C512.001 379.997 509.001 382.997 505.001 382.997Z" clip-rule="evenodd" class="color000000 svgShape"></path>
  </g>
  <defs>
    <clipPath id="clip0_427_76245">
      <rect width="512" height="512" fill="#ffffff" class="colorffffff svgShape"></rect>
    </clipPath>
  </defs>
</svg>
