<svg xmlns="http://www.w3.org/2000/svg" id="certificate" viewBox="0 0 64 64">
  <path d="M59.5 52h-55c-.3 0-.5-.2-.5-.5v-39c0-.3.2-.5.5-.5h55c.3 0 .5.2.5.5v39c0 .3-.2.5-.5.5zM5 51h54V13H5v38z" fill="#000000" class="color000000 svgShape"></path>
  <path d="M40.5 22h-17c-.3 0-.5-.2-.5-.5v-3c0-.3.2-.5.5-.5h17c.3 0 .5.2.5.5v3c0 .3-.2.5-.5.5zM24 21h16v-2H24v2zM40.5 27h-17c-.3 0-.5-.2-.5-.5s.2-.5.5-.5h17c.3 0 .5.2.5.5s-.2.5-.5.5zM50.5 30h-37c-.3 0-.5-.2-.5-.5s.2-.5.5-.5h37c.3 0 .5.2.5.5s-.2.5-.5.5zM50.5 33h-37c-.3 0-.5-.2-.5-.5s.2-.5.5-.5h37c.3 0 .5.2.5.5s-.2.5-.5.5zM50.5 36h-37c-.3 0-.5-.2-.5-.5s.2-.5.5-.5h37c.3 0 .5.2.5.5s-.2.5-.5.5zM32.2 40.6l.3.7c0 .1.1.1.2.1l.7.1c.2 0 .2.2.1.4l-.5.5s-.1.1-.1.2l.1.7c0 .2-.2.3-.3.2l-.6-.3h-.2l-.6.3c-.2.1-.3 0-.3-.2l.1-.7c0-.1 0-.1-.1-.2l-.5-.5c-.1-.1-.1-.3.1-.4l.7-.1c.1 0 .1-.1.2-.1l.3-.7c.1-.1.3-.1.4 0zM50.5 46h-11c-.3 0-.5-.2-.5-.5s.2-.5.5-.5h11c.3 0 .5.2.5.5s-.2.5-.5.5zM50.2 44c-.2 0-.3-.1-.4-.3-.5-.9-1.9-1-2.5-.1-.1.1-.2.2-.3.2-.1 0-.3 0-.4-.1-.4-.3-.9-.3-1.3.1-.1.1-.3.2-.5.1s-.3-.2-.3-.4c0-.3-.2-.5-.5-.5s-.5.2-.5.5c0 .2-.1.4-.3.4-.2.1-.4 0-.5-.1-.3-.3-.9-.4-1.3-.1-.1.1-.2.1-.4.1-.1 0-.3-.1-.3-.2-.3-.4-.7-.6-1.2-.6-.3 0-.5-.2-.5-.5s.2-.5.5-.5c.6 0 1.2.2 1.7.7.5-.2 1.1-.2 1.6 0 .2-.4.7-.7 1.2-.7s1 .3 1.2.7c.5-.2 1.1-.2 1.6 0 .5-.4 1.1-.7 1.7-.7.9 0 1.7.5 2.2 1.3.1.2.1.5-.2.7h-.3zM24.5 46h-11c-.3 0-.5-.2-.5-.5s.2-.5.5-.5h11c.3 0 .5.2.5.5s-.2.5-.5.5zM13.8 44c-.1 0-.2 0-.3-.1-.2-.1-.3-.4-.2-.7.4-.8 1.3-1.3 2.2-1.3.6 0 1.2.2 1.7.7.5-.2 1.1-.2 1.6 0 .2-.3.7-.6 1.2-.6s1 .3 1.2.7c.5-.2 1.1-.2 1.6 0 .5-.4 1.1-.7 1.7-.7.3 0 .5.2.5.5s-.2.5-.5.5c-.5 0-.9.2-1.2.6-.1.1-.2.2-.3.2-.1 0-.3 0-.4-.1-.4-.3-.9-.3-1.3.1-.1.1-.3.2-.5.1s-.3-.2-.3-.4c0-.3-.2-.5-.5-.5s-.5.2-.5.5c0 .2-.1.4-.3.4-.2.1-.4 0-.5-.1-.3-.3-.9-.4-1.3-.1-.1.1-.2.1-.4.1-.1 0-.3-.1-.3-.2-.6-.8-2-.7-2.5.1-.1.2-.3.3-.4.3z" fill="#000000" class="color000000 svgShape"></path>
  <path d="M52.5 49h-41c-.3 0-.5-.2-.5-.5 0-1.9-1.6-3.5-3.5-3.5-.3 0-.5-.2-.5-.5v-25c0-.3.2-.5.5-.5 1.9 0 3.5-1.6 3.5-3.5 0-.3.2-.5.5-.5h41c.3 0 .5.2.5.5 0 1.9 1.6 3.5 3.5 3.5.3 0 .5.2.5.5v25c0 .3-.2.5-.5.5-1.9 0-3.5 1.6-3.5 3.5 0 .3-.2.5-.5.5zM12 48h40c.2-2.1 1.9-3.7 4-4V20c-2.1-.2-3.7-1.9-4-4H12c-.2 2.1-1.9 3.7-4 4v24c2.1.3 3.7 1.9 4 4z" fill="#000000" class="color000000 svgShape"></path>
  <path d="M33 45.8c-.2 0-.4 0-.6-.1l-.1-.1c-.1-.1-.3-.1-.4 0l-.1.1c-.4.2-.8.2-1.2 0-.4-.2-.7-.5-.8-.9l-.1-.1-.3-.3-.1-.1c-.4-.1-.7-.4-.9-.8-.2-.4-.2-.8 0-1.2l.1-.1c.1-.1.1-.3 0-.4l-.1-.1c-.2-.4-.2-.8 0-1.2.2-.4.5-.7.9-.8l.1-.1.3-.3.1-.1c.1-.4.4-.7.8-.9.4-.2.8-.2 1.2 0l.1.1c.1.1.3.1.4 0l.1-.1c.4-.2.8-.2 1.2 0 .4.2.7.5.8.9l.1.1.3.3.1.1c.4.1.7.4.9.8.2.4.2.8 0 1.2l-.1.1c-.1.1-.1.3 0 .4l.1.1c.2.4.2.8 0 1.2-.2.4-.5.7-.9.8l-.1.1-.3.3-.1.1c-.1.4-.4.7-.8.9-.2.1-.4.1-.6.1zm-1-1.2c.2 0 .4 0 .6.1l.1.1c.1.1.3.1.4 0l.3-.3.1-.1c.2-.4.5-.7.9-.9l.1-.1c.1 0 .2-.1.3-.3.1-.1.1-.3 0-.4l-.1-.1c-.2-.4-.2-.8 0-1.2l.1-.1c.1-.1.1-.3 0-.4l-.3-.3-.1-.1c-.4-.2-.7-.5-.9-.9l-.1-.1c0-.1-.1-.2-.3-.3-.1-.1-.3-.1-.4 0l-.1.1c-.4.2-.8.2-1.2 0l-.1-.1c-.1-.1-.3-.1-.4 0l-.3.3-.1.1c-.2.4-.5.7-.9.9l-.1.1c-.1 0-.2.1-.3.3-.1.1-.1.3 0 .4l.1.1c.2.4.2.8 0 1.2l-.1.1c-.1.1-.1.3 0 .4l.3.3.1.1c.4.2.7.5.9.9l.1.1c0 .1.1.2.3.3.1.1.3.1.4 0l.1-.1c.2-.1.4-.1.6-.1zm.4-5.8z" fill="#000000" class="color000000 svgShape"></path>
</svg>
