<svg xmlns="http://www.w3.org/2000/svg" enable-background="new 0 0 66 66" viewBox="0 0 66 66" id="experience">
  <path fill="none" stroke="#000000" stroke-linecap="round" stroke-linejoin="round" stroke-miterlimit="10" stroke-width="1.5" d="M39 25.7v1.9c0 .5.2.9.5 1.3l.2.2c.1.1.1.1.2.2.5.3.6.3.6.3l6.8 1.9c.2.1.4.1.6.2.2.1.5.2.7.3s.3.2.5.3c.1.1.2.1.3.2.4.2.8.6 1.2.9 1.7 1.5 2.7 3.7 2.7 6.1V40c0 4-3.3 7.3-7.3 7.3h-6.5M27 47.3h-6.5c-4 0-7.3-3.3-7.3-7.3v-.6c0-2.4 1-4.6 2.7-6.1.4-.3.8-.6 1.2-.9.1-.1.2-.1.3-.2.2-.1.3-.2.5-.3.2-.1.4-.2.7-.3.2-.1.4-.1.6-.2l6.8-1.9c0 0 .1 0 .6-.3.1 0 .2-.1.2-.2l.1-.2c.3-.4.5-.8.5-1.3v-1.9" class="colorStroke000000 svgStroke"></path>
  <path fill="none" stroke="#000000" stroke-linecap="round" stroke-linejoin="round" stroke-miterlimit="10" stroke-width="1.5" d="M27 28.9c1.8 1.3 3.9 2 6 2s4.2-.7 6-2M24.9 32.5l-3 .8c-1 .3-2 .5-2.9.9M16.8 36.1c-.2.3-.4.7-.6 1M51.5 50.8l1.4 2.8c.2.3.5.6.9.6l3.1.4c1 .1 1.4 1.3.7 2l-2.2 2.2c-.3.3-.4.7-.3 1l.5 3c.2 1-.8 1.7-1.7 1.2L51 62.7c-.3-.2-.8-.2-1.1 0l-2.7 1.4c-.9.5-1.9-.3-1.7-1.2l.5-3c.1-.4-.1-.8-.3-1l-2.2-2.2c-.7-.7-.3-1.9.7-2l3.1-.4c.4-.1.7-.3.9-.6l1.4-2.8C49.8 49.9 51.1 49.9 51.5 50.8zM16.6 50.8l1.4 2.8c.2.3.5.6.9.6l3.1.4c1 .1 1.4 1.3.7 2l-2.2 2.2c-.3.3-.4.7-.3 1l.5 3c.2 1-.8 1.7-1.7 1.2l-2.7-1.4c-.3-.2-.8-.2-1.1 0L12.5 64c-.9.5-1.9-.3-1.7-1.2l.5-3c.1-.4-.1-.8-.3-1l-2.2-2.2c-.7-.7-.3-1.9.7-2l3.1-.4c.4-.1.7-.3.9-.6l1.4-2.8C14.9 49.9 16.2 49.9 16.6 50.8zM34.1 35.9l2.1 4.3c.2.4.5.6 1 .7l4.7.7c1 .2 1.5 1.4.7 2.2l-3.4 3.3c-.3.3-.4.7-.4 1.1l.8 4.7c.2 1-.9 1.8-1.8 1.3L33.6 52c-.4-.2-.8-.2-1.2 0l-4.2 2.2c-.9.5-2-.3-1.8-1.3l.8-4.7c.1-.4-.1-.8-.4-1.1l-3.4-3.3c-.8-.7-.3-2 .7-2.2l4.7-.7c.4-.1.8-.3 1-.7l2.1-4.3C32.3 34.9 33.7 34.9 34.1 35.9zM21.7 12.4v.1 3.4c0 3.1 1.3 5.9 3.3 7.9.7.7 1.5 1.4 2.4 1.9 1.6.9 3.5 1.4 5.5 1.4s3.9-.5 5.5-1.4c3.4-1.9 5.7-5.6 5.7-9.8v-3" class="colorStroke000000 svgStroke"></path>
  <path fill="none" stroke="#000000" stroke-linecap="round" stroke-linejoin="round" stroke-miterlimit="10" stroke-width="1.5" d="M38.9,12.5c-5.1-0.3-9.6-3.3-9.7-3.2c-0.8,2.2-3,3.6-5.3,3.6h-2.2c0,0-0.6-7.1,4.1-7C26.5,2.1,38-1.5,43.3,6.6
		c0.7,1,1,2.2,1,3.4v2.8l-4.8-0.3C39.3,12.5,39.1,12.5,38.9,12.5z" class="colorStroke000000 svgStroke"></path>
</svg>
