<svg width="120" height="120" viewBox="0 0 120 120" fill="none" xmlns="http://www.w3.org/2000/svg">
<rect width="120" height="120" rx="8" fill="#F6F6F6"/>
<g clip-path="url(#clip0_2004_3452)">
<path d="M48.3332 95C54.7732 95 59.9998 89.7734 59.9998 83.3334V71.6667H48.3332C41.8932 71.6667 36.6665 76.8934 36.6665 83.3334C36.6665 89.7734 41.8932 95 48.3332 95Z" fill="#0ACF83"/>
<path d="M36.6665 60C36.6665 53.56 41.8932 48.3333 48.3332 48.3333H59.9998V71.6667H48.3332C41.8932 71.6667 36.6665 66.44 36.6665 60Z" fill="#A259FF"/>
<path d="M36.6665 36.6667C36.6665 30.2267 41.8932 25 48.3332 25H59.9998V48.3333H48.3332C41.8932 48.3333 36.6665 43.1067 36.6665 36.6667Z" fill="#F24E1E"/>
<path d="M60 25H71.6667C78.1067 25 83.3333 30.2267 83.3333 36.6667C83.3333 43.1067 78.1067 48.3333 71.6667 48.3333H60V25Z" fill="#FF7262"/>
<path d="M83.3333 60C83.3333 66.44 78.1067 71.6667 71.6667 71.6667C65.2267 71.6667 60 66.44 60 60C60 53.56 65.2267 48.3333 71.6667 48.3333C78.1067 48.3333 83.3333 53.56 83.3333 60Z" fill="#1ABCFE"/>
</g>
<defs>
<clipPath id="clip0_2004_3452">
<rect width="70" height="70" fill="white" transform="translate(25 25)"/>
</clipPath>
</defs>
</svg>
