<svg width="120" height="120" viewBox="0 0 120 120" fill="none" xmlns="http://www.w3.org/2000/svg">
<rect width="120" height="120" rx="8" fill="#F6F6F6"/>
<g clip-path="url(#clip0_2004_3424)">
<path d="M84.909 38.7219L80.3701 89.2072L59.9675 94.8231L39.6211 89.215L35.0869 38.7219H84.909Z" fill="#E44D26"/>
<path d="M59.998 90.5305L76.4844 85.9925L80.363 42.8504H59.998V90.5305Z" fill="#F16529"/>
<path d="M51.1743 55.2361H59.9978V49.0434H44.3579L44.5071 50.7048L46.0402 67.7704H59.9978V61.5776H51.7444L51.1743 55.2361ZM52.5801 70.8669H46.3189L47.1926 80.5905L59.9691 84.1118L59.9978 84.1041V77.661L59.9705 77.6681L53.0242 75.8059L52.5801 70.8669Z" fill="#EBEBEB"/>
<path d="M39.7222 25H42.8918V28.1093H45.7914V25H48.9612V34.4157H45.7916V31.2628H42.892V34.4157H39.7224L39.7222 25ZM53.1293 28.1225H50.3393V25H59.0913V28.1225H56.2995V34.4157H53.1298V28.1225H53.1293ZM60.4802 25H63.7852L65.8182 28.3084L67.8493 25H71.1557V34.4157H67.9989V29.7488L65.8182 33.0965H65.7636L63.5815 29.7488V34.4157H60.4802V25ZM72.7331 25H75.9037V31.3035H80.3612V34.4157H72.7329V25H72.7331Z" fill="black"/>
<path d="M59.9763 67.7704H67.6567L66.9325 75.802L59.9761 77.6662V84.1089L72.7627 80.5905L72.8565 79.5442L74.3223 63.2406L74.4745 61.5776H59.9763V67.7704ZM59.9763 55.221V55.2361H75.042L75.167 53.8443L75.4514 50.7048L75.6004 49.0434H59.9763V55.221Z" fill="white"/>
</g>
<defs>
<clipPath id="clip0_2004_3424">
<rect width="50" height="70" fill="white" transform="translate(35 25)"/>
</clipPath>
</defs>
</svg>
