<svg xmlns="http://www.w3.org/2000/svg" xml:space="preserve" viewBox="0 0 64 64" id="NonMonetaryMotivation">
  <path d="M17.68 64H9.94a.49.49 0 0 1-.49-.49v-9.43c0-.27.22-.49.49-.49h7.74c.27 0 .49.22.49.49v9.43c0 .27-.22.49-.49.49m-7.25-.98h6.76v-8.44h-6.76z" fill="#000000" class="color000000 svgShape"></path>
  <path d="M17.68 64H9.94a.49.49 0 0 1-.49-.49v-9.43c0-.27.22-.49.49-.49h7.74c.27 0 .49.22.49.49v9.43c0 .27-.22.49-.49.49m-7.25-.98h6.76v-8.44h-6.76zM27.62 64H19.7a.49.49 0 0 1-.49-.49v-18c0-.27.22-.49.49-.49h7.92c.27 0 .49.22.49.49V63.5c0 .28-.22.5-.49.5m-7.43-.98h6.94V46.01h-6.94z" fill="#000000" class="color000000 svgShape"></path>
  <path d="M27.62 64H19.7a.49.49 0 0 1-.49-.49v-18c0-.27.22-.49.49-.49h7.92c.27 0 .49.22.49.49V63.5c0 .28-.22.5-.49.5m-7.43-.98h6.94V46.01h-6.94zM37.55 64h-7.92a.49.49 0 0 1-.49-.49V37.77c0-.27.22-.49.49-.49h7.92c.27 0 .49.22.49.49v25.74c.01.27-.21.49-.49.49m-7.42-.98h6.94V38.26h-6.94z" fill="#000000" class="color000000 svgShape"></path>
  <path d="M37.55 64h-7.92a.49.49 0 0 1-.49-.49V37.77c0-.27.22-.49.49-.49h7.92c.27 0 .49.22.49.49v25.74c.01.27-.21.49-.49.49m-7.42-.98h6.94V38.26h-6.94zM47.58 64h-7.92a.49.49 0 0 1-.49-.49V29.99c0-.27.22-.49.49-.49h7.92c.27 0 .49.22.49.49V63.5c0 .28-.22.5-.49.5m-7.43-.98h6.94V30.49h-6.94zM31.54 12.13c-1.44 0-2.61-1.17-2.61-2.61s1.17-2.61 2.61-2.61 2.61 1.17 2.61 2.61-1.17 2.61-2.61 2.61m0-4.23c-.9 0-1.62.73-1.62 1.63s.73 1.63 1.62 1.63a1.63 1.63 0 0 0 0-3.26" fill="#000000" class="color000000 svgShape"></path>
  <path d="M31.54 15.48c-3.29 0-5.96-2.67-5.96-5.96s2.67-5.96 5.96-5.96 5.96 2.67 5.96 5.96-2.67 5.96-5.96 5.96m0-10.93c-2.74 0-4.98 2.23-4.98 4.98a4.98 4.98 0 0 0 9.96 0c0-2.75-2.24-4.98-4.98-4.98" fill="#000000" class="color000000 svgShape"></path>
  <path d="M31.54 18.5c-4.95 0-8.97-4.03-8.97-8.97S26.6.56 31.54.56s8.97 4.03 8.97 8.97-4.02 8.97-8.97 8.97m0-16.97c-4.41 0-7.99 3.58-7.99 7.99s3.58 7.99 7.99 7.99 7.99-3.58 7.99-7.99-3.58-7.99-7.99-7.99" fill="#000000" class="color000000 svgShape"></path>
  <path d="M38.88 2.81c-.12 0-.24-.05-.33-.13a.48.48 0 0 1-.16-.36V.49a.49.49 0 0 1 .98 0v1.29l1.26-.1c.25-.02.51.18.53.45s-.18.51-.45.53l-1.79.14c-.01.01-.02.01-.04.01" fill="#000000" class="color000000 svgShape"></path>
  <path d="M31.64 10.05c-.13 0-.25-.05-.35-.14a.5.5 0 0 1 0-.7l7.24-7.24c.19-.19.5-.19.7 0 .19.19.19.5 0 .7l-7.24 7.24c-.1.09-.22.14-.35.14M43.62 30.49a.49.49 0 0 1-.49-.49V12.25c0-.27.22-.49.49-.49h14.91c.2 0 .37.12.45.3s.04.39-.09.53l-4.35 4.68 3.67 4.51a.492.492 0 0 1-.38.8H44.11v7.41c0 .28-.22.5-.49.5m.49-8.89h12.68l-3.29-4.04a.5.5 0 0 1 .02-.65l3.87-4.17H44.11zM18.04 25.25c-2.07 0-3.76-1.69-3.76-3.76s1.69-3.76 3.76-3.76c2.08 0 3.76 1.69 3.76 3.76s-1.68 3.76-3.76 3.76m0-6.54c-1.53 0-2.78 1.25-2.78 2.78s1.25 2.78 2.78 2.78 2.78-1.25 2.78-2.78a2.78 2.78 0 0 0-2.78-2.78" fill="#000000" class="color000000 svgShape"></path>
  <path d="M22.35 46c-.27 0-.48-.21-.49-.48l-.1-3.69-8.68-2.99c-.27-.09-.52-.23-.74-.4a2.48 2.48 0 0 1-.86-2.47l1.42-6.49-1.55-.08c-.1-.01-.18.05-.23.14l-2.38 4.89c-.44.91-1.51 1.33-2.46.98a2 2 0 0 1-1.29-1.85c0-.27.06-.53.19-.82l2.5-5.44a3.68 3.68 0 0 1 2.57-2.08c2.71-.58 6.97-.05 7.15-.03.08.01 1.47.26 2.96 1.4l.02.02c1.23.95 2.16 2.2 2.76 3.73.09.23.29.4.52.44l3.89.72c.82.16 1.42.88 1.42 1.72 0 .96-.77 1.74-1.73 1.74l-3.87.02c-.81 0-1.57-.32-2.13-.9l-2.45-2.5a.5.5 0 0 1-.13-.45l.86-3.92c-1.2-.83-2.26-1.03-2.27-1.03-.02 0-4.25-.52-6.81.02-.82.17-1.52.74-1.87 1.52l-2.5 5.44c-.07.15-.1.28-.1.41 0 .41.26.78.65.93a.98.98 0 0 0 1.23-.48l2.39-4.91c.23-.45.69-.72 1.17-.68l2.12.11c.14.01.28.08.37.19s.12.26.09.4l-1.54 7.06c-.13.55.07 1.13.52 1.49.12.1.28.18.43.24l9.01 3.11c.19.07.33.25.33.45l.11 4.03a.5.5 0 0 1-.48.51zm-2.68-14.94 2.26 2.31c.38.39.89.6 1.43.6l3.87-.02c.4 0 .74-.34.74-.75 0-.37-.25-.68-.62-.75l-3.89-.72c-.56-.1-1.04-.5-1.26-1.04-.44-1.1-1.06-2.04-1.85-2.8z" fill="#000000" class="color000000 svgShape"></path>
  <path d="M25.43 46a.49.49 0 0 1-.49-.49v-5.36c0-.22-.06-.42-.16-.58-.13-.2-.31-.35-.52-.43l-6.38-2.46a.49.49 0 0 1-.3-.56l1.09-5c.06-.27.32-.44.59-.38a.5.5 0 0 1 .38.59l-1 4.59 5.99 2.32c.4.16.74.44.98.8.22.32.33.71.33 1.13v5.36a.52.52 0 0 1-.51.47M11.05 51.96c-.5 0-.96-.16-1.34-.46a2.193 2.193 0 0 1-.37-3.08l2.68-3.43c.61-.78.93-1.7.93-2.68 0-.3-.03-.6-.1-.9l-.69-3.26c-.06-.27.11-.53.38-.58.26-.05.53.11.58.38l.69 3.26q.12.54.12 1.11c0 1.18-.4 2.34-1.13 3.28l-2.68 3.43c-.41.53-.32 1.29.2 1.7.46.36 1.2.31 1.64-.16l3.54-3.96c.48-.55.84-1.23 1.03-1.96.09-.36.13-.75.13-1.14v-3.76a.49.49 0 0 1 .98 0v3.76c0 .47-.06.94-.17 1.39-.23.89-.67 1.7-1.25 2.37l-3.55 3.97c-.41.45-1.01.72-1.62.72" fill="#000000" class="color000000 svgShape"></path>
</svg>
